#Comment line ignore any data following # character 
#Hierarchical Translation and Rotation (.htr) file 
[Header]	
#Header keywords are followed by a single value 
FileType HTR		#Single word string
DataType HTRS		#Translation followed by rotation and scale data
FileVersion 1		#integer
NumSegments 64		#integer
NumFrames 3		#integer
DataFrameRate 30		#integer, data frame rate in this file
EulerRotationOrder ZYX
CalibrationUnits mm
RotationUnits Degrees
GlobalAxisofGravity Y
BoneLengthAxis Y
ScaleFactor 1.00
[SegmentNames&Hierarchy]
#CHILD	PARENT
Pinger_Root GLOBAL
Pelvis Pinger_Root
L_Hip Pelvis
R_Hip Pelvis
Rear_Leg01 Pelvis
Spine1 Pelvis
L_Leg01 L_Hip
L_Leg02 L_Leg01
L_Leg03 L_Leg02
L_Foot L_Leg03
L_Toe1_01 L_Foot
L_Toe2_01 L_Foot
L_Toe3_01 L_Foot
planeAlignerLeft L_Foot
L_Toe1_02 L_Toe1_01
L_Toe1_03 L_Toe1_02
L_Toe2_02 L_Toe2_01
L_Toe2_03 L_Toe2_02
L_Toe3_02 L_Toe3_01
L_Toe3_03 L_Toe3_02
planeLockWeightLeft planeAlignerLeft
R_Leg01 R_Hip
R_Leg02 R_Leg01
R_Leg03 R_Leg02
R_Foot R_Leg03
planeAlignerRight R_Foot
R_Toe1_01 R_Foot
R_Toe2_01 R_Foot
R_Toe3_01 R_Foot
planeLockWeightRight planeAlignerRight
R_Toe1_02 R_Toe1_01
R_Toe1_03 R_Toe1_02
R_Toe2_02 R_Toe2_01
R_Toe2_03 R_Toe2_02
R_Toe3_02 R_Toe3_01
R_Toe3_03 R_Toe3_02
Rear_Leg02 Rear_Leg01
Rear_Leg03 Rear_Leg02
Rear_Leg04 Rear_Leg03
Rear_Foot Rear_Leg04
planeAlignerCenter Rear_Foot
Rear_Toe1_01 Rear_Foot
Rear_Toe2_01 Rear_Foot
Rear_Toe3_01 Rear_Foot
planeLockWeightCenter planeAlignerCenter
Rear_Toe1_02 Rear_Toe1_01
Rear_Toe1_03 Rear_Toe1_02
Rear_Toe2_02 Rear_Toe2_01
Rear_Toe2_03 Rear_Toe2_02
Rear_Toe3_02 Rear_Toe3_01
Rear_Toe3_03 Rear_Toe3_02
Back_Bone Spine1
Head Spine1
Motor_Bone Back_Bone
Ping_Mechanism Back_Bone
BN_LookIK Head
bottomMouth Head
L_Mouth01 Head
L_mouthFront Head
mouthGun Head
R_Mouth01 Head
R_mouthFront Head
TopMouth Head
weapon_bone Head
[BasePosition]
#SegmentName Tx, Ty, Tz, Rx, Ry, Rz, BoneLength
Pinger_Root 0.000000 0.000000 0.000000 -90.000000 0.000000 0.000000 10.000000 
Pelvis 0.000000 0.000000 0.000000 0.000000 0.000000 0.000000 10.000000 
L_Hip 0.000000 0.000000 0.000000 0.000000 0.000000 0.000000 10.000000 
R_Hip 0.000000 0.000000 0.000000 0.000000 0.000000 0.000000 10.000000 
Rear_Leg01 0.000000 0.000000 0.000000 0.000000 0.000000 0.000000 10.000000 
Spine1 0.000000 0.000000 0.000000 0.000000 0.000000 0.000000 10.000000 
L_Leg01 0.000000 0.000000 0.000000 0.000000 0.000000 0.000000 10.000000 
L_Leg02 0.000000 0.000000 0.000000 0.000000 0.000000 0.000000 10.000000 
L_Leg03 0.000000 0.000000 0.000000 0.000000 0.000000 0.000000 10.000000 
L_Foot 0.000000 0.000000 0.000000 0.000000 0.000000 0.000000 10.000000 
L_Toe1_01 0.000000 0.000000 0.000000 0.000000 0.000000 0.000000 10.000000 
L_Toe2_01 0.000000 0.000000 0.000000 0.000000 0.000000 0.000000 10.000000 
L_Toe3_01 0.000000 0.000000 0.000000 0.000000 0.000000 0.000000 10.000000 
planeAlignerLeft 0.000000 0.000000 0.000000 0.000000 0.000000 0.000000 10.000000 
L_Toe1_02 0.000000 0.000000 0.000000 0.000000 0.000000 0.000000 10.000000 
L_Toe1_03 0.000000 0.000000 0.000000 0.000000 0.000000 0.000000 10.000000 
L_Toe2_02 0.000000 0.000000 0.000000 0.000000 0.000000 0.000000 10.000000 
L_Toe2_03 0.000000 0.000000 0.000000 0.000000 0.000000 0.000000 10.000000 
L_Toe3_02 0.000000 0.000000 0.000000 0.000000 0.000000 0.000000 10.000000 
L_Toe3_03 0.000000 0.000000 0.000000 0.000000 0.000000 0.000000 10.000000 
planeLockWeightLeft 0.000000 0.000000 0.000000 0.000000 0.000000 0.000000 10.000000 
R_Leg01 0.000000 0.000000 0.000000 0.000000 0.000000 0.000000 10.000000 
R_Leg02 0.000000 0.000000 0.000000 0.000000 0.000000 0.000000 10.000000 
R_Leg03 0.000000 0.000000 0.000000 0.000000 0.000000 0.000000 10.000000 
R_Foot 0.000000 0.000000 0.000000 0.000000 0.000000 0.000000 10.000000 
planeAlignerRight 0.000000 0.000000 0.000000 0.000000 0.000000 0.000000 10.000000 
R_Toe1_01 0.000000 0.000000 0.000000 0.000000 0.000000 0.000000 10.000000 
R_Toe2_01 0.000000 0.000000 0.000000 0.000000 0.000000 0.000000 10.000000 
R_Toe3_01 0.000000 0.000000 0.000000 0.000000 0.000000 0.000000 10.000000 
planeLockWeightRight 0.000000 0.000000 0.000000 0.000000 0.000000 0.000000 10.000000 
R_Toe1_02 0.000000 0.000000 0.000000 0.000000 0.000000 0.000000 10.000000 
R_Toe1_03 0.000000 0.000000 0.000000 0.000000 0.000000 0.000000 10.000000 
R_Toe2_02 0.000000 0.000000 0.000000 0.000000 0.000000 0.000000 10.000000 
R_Toe2_03 0.000000 0.000000 0.000000 0.000000 0.000000 0.000000 10.000000 
R_Toe3_02 0.000000 0.000000 0.000000 0.000000 0.000000 0.000000 10.000000 
R_Toe3_03 0.000000 0.000000 0.000000 0.000000 0.000000 0.000000 10.000000 
Rear_Leg02 0.000000 0.000000 0.000000 0.000000 0.000000 0.000000 10.000000 
Rear_Leg03 0.000000 0.000000 0.000000 0.000000 0.000000 0.000000 10.000000 
Rear_Leg04 0.000000 0.000000 0.000000 0.000000 0.000000 0.000000 10.000000 
Rear_Foot 0.000000 0.000000 0.000000 0.000000 0.000000 0.000000 10.000000 
planeAlignerCenter 0.000000 0.000000 0.000000 0.000000 0.000000 0.000000 10.000000 
Rear_Toe1_01 0.000000 0.000000 0.000000 0.000000 0.000000 0.000000 10.000000 
Rear_Toe2_01 0.000000 0.000000 0.000000 0.000000 0.000000 0.000000 10.000000 
Rear_Toe3_01 0.000000 0.000000 0.000000 0.000000 0.000000 0.000000 10.000000 
planeLockWeightCenter 0.000000 0.000000 0.000000 0.000000 0.000000 0.000000 10.000000 
Rear_Toe1_02 0.000000 0.000000 0.000000 0.000000 0.000000 0.000000 10.000000 
Rear_Toe1_03 0.000000 0.000000 0.000000 0.000000 0.000000 0.000000 10.000000 
Rear_Toe2_02 0.000000 0.000000 0.000000 0.000000 0.000000 0.000000 10.000000 
Rear_Toe2_03 0.000000 0.000000 0.000000 0.000000 0.000000 0.000000 10.000000 
Rear_Toe3_02 0.000000 0.000000 0.000000 0.000000 0.000000 0.000000 10.000000 
Rear_Toe3_03 0.000000 0.000000 0.000000 0.000000 0.000000 0.000000 10.000000 
Back_Bone 0.000000 0.000000 0.000000 0.000000 0.000000 0.000000 10.000000 
Head 0.000000 0.000000 0.000000 0.000000 0.000000 0.000000 10.000000 
Motor_Bone 0.000000 0.000000 0.000000 0.000000 0.000000 0.000000 10.000000 
Ping_Mechanism 0.000000 0.000000 0.000000 0.000000 0.000000 0.000000 10.000000 
BN_LookIK 0.000000 0.000000 0.000000 0.000000 0.000000 0.000000 10.000000 
bottomMouth 0.000000 0.000000 0.000000 0.000000 0.000000 0.000000 10.000000 
L_Mouth01 0.000000 0.000000 0.000000 0.000000 0.000000 0.000000 10.000000 
L_mouthFront 0.000000 0.000000 0.000000 0.000000 0.000000 0.000000 10.000000 
mouthGun 0.000000 0.000000 0.000000 0.000000 0.000000 0.000000 10.000000 
R_Mouth01 0.000000 0.000000 0.000000 0.000000 0.000000 0.000000 10.000000 
R_mouthFront 0.000000 0.000000 0.000000 0.000000 0.000000 0.000000 10.000000 
TopMouth 0.000000 0.000000 0.000000 0.000000 0.000000 0.000000 10.000000 
weapon_bone 0.000000 0.000000 0.000000 0.000000 0.000000 0.000000 10.000000 
#Beginning of Data. Separated by tabs
#Fr	Tx	Ty	Tz	Rx	Ry	Rz	SF
[Pinger_Root]
16 0.000000 0.000000 0.000000 -0.000075 -0.000000 -0.000020 0.000000
17 0.000000 0.000000 0.000000 -0.000075 -0.000000 -0.000020 0.000000
18 0.000000 0.000000 0.000000 -0.000075 -0.000000 -0.000020 0.000000
[Pelvis]
16 -267.393616 2082.447266 3450.203369 -34.529129 -84.358475 20.183943 4038.810547
17 -266.526215 2068.892334 3466.943115 -13.857902 -83.566750 0.326126 4046.114990
18 -265.658752 2055.908691 3494.843018 -14.276815 -83.772537 0.767563 4063.405273
[L_Hip]
16 5.766392 125.831482 872.656799 172.961731 -43.422859 113.649780 881.701050
17 5.766392 125.831482 872.656799 172.961731 -43.422859 113.649780 881.701050
18 5.766392 125.831482 872.656799 172.961731 -43.422871 113.649773 881.701050
[R_Hip]
16 5.765438 125.836372 -872.654907 -82.246918 65.637856 -6.790610 881.699829
17 5.765438 125.836372 -872.654907 -85.401070 65.348938 -9.970514 881.699829
18 5.765438 125.836372 -872.654907 -87.852295 65.053291 -12.503071 881.699829
[Rear_Leg01]
16 -192.298416 -925.602966 -0.001907 178.360458 21.844843 -128.077606 945.367432
17 -192.298416 -925.602966 -0.001907 -179.772095 21.963394 -125.772797 945.367432
18 -192.298416 -925.602966 -0.001907 179.865921 21.780907 -126.228317 945.367432
[Spine1]
16 290.604584 5.007505 0.000477 3.349479 -16.275200 38.924717 290.647736
17 290.604584 5.007505 0.000477 1.574688 -16.786140 40.963478 290.647736
18 290.604584 5.007505 0.000477 1.718076 -16.508112 40.867989 290.647736
[L_Leg01]
16 761.932007 -0.002384 -0.069261 46.123257 15.375924 -46.200150 761.932068
17 761.932007 -0.002384 -0.069261 46.936340 13.803290 -48.632946 761.932068
18 761.932007 -0.002384 -0.069261 47.112068 12.589856 -47.578098 761.932068
[L_Leg02]
16 1441.140503 -0.000954 -0.000715 7.286749 2.965786 -101.347015 1441.140503
17 1441.140503 -0.000954 -0.000715 6.779064 2.373550 -98.543030 1441.140503
18 1441.140503 -0.000954 -0.000715 6.592643 2.220177 -100.287384 1441.140503
[L_Leg03]
16 1686.963989 -0.000715 -0.000954 -0.122531 0.077921 143.852112 1686.963989
17 1686.963989 -0.000715 -0.000954 -0.117667 0.072575 141.717743 1686.963989
18 1686.963989 -0.000715 -0.000954 -0.114848 0.070523 141.190765 1686.963989
[L_Foot]
16 3041.570068 -30.715107 11.297464 -21.347588 42.540627 33.971027 3041.746094
17 3041.570068 -30.715107 11.297464 -20.641447 42.402813 33.430885 3041.746094
18 3041.570068 -30.715107 11.297464 -20.462440 42.203220 34.235550 3041.746094
[L_Toe1_01]
16 -188.216690 -224.732346 -21.137953 94.188507 -7.480001 179.915802 293.899567
17 -188.216690 -224.732346 -21.137953 94.188614 -7.481593 179.915543 293.899567
18 -188.216690 -224.732346 -21.137953 94.188736 -7.483188 179.915268 293.899567
[L_Toe2_01]
16 200.746536 -219.926590 148.838394 -98.193222 -36.571735 -34.803730 332.896027
17 200.746536 -219.926590 148.838394 -98.193230 -36.571743 -34.803734 332.896027
18 200.746536 -219.926590 148.838394 -98.193222 -36.571735 -34.803730 332.896027
[L_Toe3_01]
16 188.832520 -219.859131 -191.078659 -96.688622 25.052523 -61.536617 347.140900
17 188.832520 -219.859131 -191.078659 -96.679802 25.038572 -61.562389 347.140900
18 188.832520 -219.859131 -191.078659 -96.679802 25.038574 -61.562389 347.140900
[planeAlignerLeft]
16 0.812531 -811.448792 -0.314951 0.000000 -90.000000 -90.001900 811.449280
17 0.812531 -811.448792 -0.314951 0.000000 -90.000000 -90.001900 811.449280
18 0.812531 -811.448792 -0.314951 0.000000 -90.000000 -90.001900 811.449280
[L_Toe1_02]
16 413.761139 0.000477 0.000000 0.001661 0.069785 0.001661 413.761139
17 413.761139 0.000477 0.000000 0.001661 0.069661 0.001661 413.761139
18 413.761139 0.000477 0.000000 0.001661 0.069537 0.001661 413.761139
[L_Toe1_03]
16 464.317322 0.000358 -0.000089 0.001673 -0.448396 -0.003292 464.317322
17 464.317322 0.000358 -0.000089 0.001673 -0.448396 -0.003292 464.317322
18 464.317322 0.000358 -0.000089 0.001673 -0.448396 -0.003292 464.317322
[L_Toe2_02]
16 342.235809 -0.000477 0.000238 0.004684 -81.205826 0.004684 342.235809
17 342.235809 -0.000477 0.000238 0.004684 -81.206345 0.004684 342.235809
18 342.235809 -0.000477 0.000238 0.004684 -81.206787 0.004684 342.235809
[L_Toe2_03]
16 420.210846 -0.000715 0.000000 179.993240 43.061142 -179.999130 420.210846
17 420.210846 -0.000715 0.000000 179.993240 43.061138 -179.999130 420.210846
18 420.210846 -0.000715 0.000000 179.993240 43.061138 -179.999130 420.210846
[L_Toe3_02]
16 329.270111 0.000954 0.000000 0.004675 -84.617874 0.004675 329.270111
17 329.270111 0.000954 0.000000 0.004675 -84.602142 0.004675 329.270111
18 329.270111 0.000954 0.000000 0.004676 -84.586296 0.004676 329.270111
[L_Toe3_03]
16 439.137451 -0.001907 0.000954 179.993500 35.788990 -179.998657 439.137451
17 439.137451 -0.001907 0.000954 179.993500 35.788994 -179.998657 439.137451
18 439.137451 -0.001907 0.000954 179.993500 35.788990 -179.998657 439.137451
[planeLockWeightLeft]
16 -0.000954 0.000238 -0.000305 -0.011826 -0.004376 0.005620 0.001029
17 -0.000954 0.000238 -0.000305 -0.011826 -0.004376 0.005620 0.001029
18 -0.000954 0.000238 -0.000305 -0.011826 -0.004376 0.005620 0.001029
[R_Leg01]
16 761.455627 -0.001907 -0.000358 120.750328 -6.300903 76.763527 761.455688
17 761.455627 -0.001907 -0.000358 118.622902 -6.059148 75.343887 761.455688
18 761.455627 -0.001907 -0.000358 117.126656 -5.690813 77.075798 761.455688
[R_Leg02]
16 1441.140625 0.000000 -0.000238 -1.995021 -0.634588 -120.179642 1441.140625
17 1441.140625 0.000000 -0.000238 -2.052237 -0.684600 -121.950241 1441.140625
18 1441.140625 0.000000 -0.000238 -1.952355 -0.595876 -118.507790 1441.140625
[R_Leg03]
16 1686.963989 0.000954 0.001431 0.104282 -0.063421 139.448227 1686.963989
17 1686.963989 0.000954 0.001431 0.110298 -0.066905 140.027649 1686.963989
18 1686.963989 0.000954 0.001431 0.104492 -0.063075 139.068390 1686.963989
[R_Foot]
16 3041.560059 -30.531288 -11.204481 4.877361 11.541145 54.499123 3041.734131
17 3041.560059 -30.531288 -11.204481 4.806235 11.114421 54.774746 3041.734131
18 3041.560059 -30.531288 -11.204481 4.493966 10.488402 53.326630 3041.734131
[planeAlignerRight]
16 -0.635147 -812.270569 -0.364304 0.000000 -89.960434 -90.005180 812.270874
17 -0.635147 -812.270569 -0.364304 0.000000 -89.960434 -90.005180 812.270874
18 -0.635147 -812.270569 -0.364304 0.000000 -89.960434 -90.005180 812.270874
[R_Toe1_01]
16 -188.383347 -224.864899 21.052242 77.501572 2.583647 -171.437317 294.101532
17 -188.383347 -224.864899 21.052242 77.501572 2.583729 -171.437408 294.101532
18 -188.383347 -224.864899 21.052242 77.501572 2.583811 -171.437515 294.101532
[R_Toe2_01]
16 200.637817 -220.002121 -148.787384 -87.001541 41.722485 -47.416878 332.857574
17 200.637817 -220.002121 -148.787384 -87.001534 41.722878 -47.416725 332.857574
18 200.637817 -220.002121 -148.787384 -87.001518 41.723270 -47.416557 332.857574
[R_Toe3_01]
16 188.606735 -220.092957 191.126343 -74.754692 -14.717099 -63.950432 347.192566
17 188.606735 -220.092957 191.126343 -74.764458 -14.731604 -63.949783 347.192566
18 188.606735 -220.092957 191.126343 -74.774231 -14.746103 -63.949142 347.192566
[planeLockWeightRight]
16 -0.000477 0.000000 0.000000 -0.011823 -0.004379 -0.000027 0.000477
17 -0.000477 0.000000 0.000000 -0.011823 -0.004379 -0.000027 0.000477
18 -0.000477 0.000000 0.000000 -0.011823 -0.004379 -0.000027 0.000477
[R_Toe1_02]
16 413.762085 0.000477 -0.000119 0.001417 -21.812601 0.001417 413.762085
17 413.762085 0.000477 -0.000119 0.001417 -21.811567 0.001417 413.762085
18 413.762085 0.000477 -0.000119 0.001417 -21.810532 0.001417 413.762085
[R_Toe1_03]
16 464.317810 0.000000 0.001088 0.000897 28.982979 -0.003161 464.317810
17 464.317810 0.000000 0.001088 0.000897 28.972298 -0.003161 464.317810
18 464.317810 0.000000 0.001088 0.000898 28.961615 -0.003161 464.317810
[R_Toe2_02]
16 342.234741 -0.000954 0.000238 -0.002334 -78.734474 -0.002334 342.234741
17 342.234741 -0.000954 0.000238 -0.002334 -78.751129 -0.002334 342.234741
18 342.234741 -0.000954 0.000238 -0.002334 -78.767685 -0.002334 342.234741
[R_Toe2_03]
16 420.210846 0.000715 -0.000268 -179.994690 71.300629 -179.998230 420.210846
17 420.210846 0.000715 -0.000268 -179.994690 71.300644 -179.998230 420.210846
18 420.210846 0.000715 -0.000268 -179.994690 71.300629 -179.998230 420.210846
[R_Toe3_02]
16 329.270355 -0.000477 -0.000954 0.001175 -84.043129 0.001175 329.270355
17 329.270355 -0.000477 -0.000954 0.001175 -84.043785 0.001175 329.270355
18 329.270355 -0.000477 -0.000954 0.001175 -84.044449 0.001175 329.270355
[R_Toe3_03]
16 439.137939 0.000238 0.001431 -179.995331 57.504204 -179.988052 439.137939
17 439.137939 0.000238 0.001431 -179.995331 57.504066 -179.988052 439.137939
18 439.137939 0.000238 0.001431 -179.995331 57.503910 -179.988052 439.137939
[Rear_Leg02]
16 1162.777710 -0.029802 0.005960 7.871753 18.510572 -71.791962 1162.777710
17 1162.777710 -0.029802 0.005960 7.485950 18.485023 -72.856987 1162.777710
18 1162.777710 -0.029802 0.005960 7.471776 18.266769 -72.702431 1162.777710
[Rear_Leg03]
16 607.192505 -0.013351 -0.073195 0.008784 0.003176 50.247150 607.192505
17 607.192505 -0.013351 -0.073195 0.008797 0.003140 50.717381 607.192505
18 607.192505 -0.013351 -0.073195 0.008794 0.003148 50.613438 607.192505
[Rear_Leg04]
16 995.874512 -0.020504 -0.011921 -0.033526 -0.013893 33.907360 995.874573
17 995.874512 -0.020504 -0.011921 -0.033612 -0.013684 34.621555 995.874573
18 995.874512 -0.020504 -0.011921 -0.033593 -0.013730 34.463623 995.874573
[Rear_Foot]
16 3096.176270 -0.067472 -0.041425 31.921057 64.577156 -116.493317 3096.176270
17 3096.176270 -0.067472 -0.041425 31.776213 64.825371 -116.795509 3096.176270
18 3096.176270 -0.067472 -0.041425 31.961952 65.104729 -116.856247 3096.176270
[planeAlignerCenter]
16 0.350077 0.966311 -838.790894 0.000009 0.000003 -179.999985 838.791565
17 0.350077 0.966311 -838.790894 0.000009 0.000003 -179.999985 838.791565
18 0.350077 0.966311 -838.790894 0.000009 0.000003 -179.999985 838.791565
[Rear_Toe1_01]
16 0.653352 83.966492 -371.173737 -30.751724 22.818045 86.598343 380.553192
17 0.653352 83.966492 -371.173737 -30.751724 22.817753 86.598236 380.553192
18 0.653352 83.966492 -371.173737 -30.751724 22.817453 86.598106 380.553192
[Rear_Toe2_01]
16 178.200760 -294.826019 -362.060547 -8.135628 -0.228551 -62.257645 499.765686
17 178.200760 -294.826019 -362.060547 -8.135688 -0.228793 -62.257618 499.765686
18 178.200760 -294.826019 -362.060547 -8.135748 -0.229035 -62.257610 499.765686
[Rear_Toe3_01]
16 -153.359680 -308.780914 -362.060852 3.733945 13.521375 -102.730331 499.952881
17 -153.359680 -308.780914 -362.060852 3.733967 13.521126 -102.730347 499.952881
18 -153.359680 -308.780914 -362.060852 3.733991 13.520877 -102.730385 499.952881
[planeLockWeightCenter]
16 -0.000062 0.000238 0.000000 -0.011814 -0.004373 -0.000015 0.000246
17 -0.000062 0.000238 0.000000 -0.011814 -0.004373 -0.000015 0.000246
18 -0.000062 0.000238 0.000000 -0.011814 -0.004373 -0.000015 0.000246
[Rear_Toe1_02]
16 379.707825 0.194073 0.000477 -0.006719 -30.029285 -0.006719 379.707855
17 379.707825 0.194073 0.000477 -0.006719 -30.029099 -0.006719 379.707855
18 379.707825 0.194073 0.000477 -0.006719 -30.028921 -0.006719 379.707855
[Rear_Toe1_03]
16 500.129700 0.165701 0.000119 -179.994797 70.680420 -179.998352 500.129761
17 500.129700 0.165701 0.000119 -179.994797 70.680191 -179.998352 500.129761
18 500.129700 0.165701 0.000119 -179.994797 70.679970 -179.998352 500.129761
[Rear_Toe2_02]
16 340.494507 0.000238 -0.000954 0.001661 0.061519 0.001661 340.494507
17 340.494507 0.000238 -0.000954 0.001661 0.061689 0.001661 340.494507
18 340.494507 0.000238 -0.000954 0.001661 0.061860 0.001661 340.494507
[Rear_Toe2_03]
16 433.103577 0.000000 0.000238 -0.003297 -0.804494 0.001683 433.103546
17 433.103577 0.000000 0.000238 -0.003297 -0.804494 0.001683 433.103546
18 433.103577 0.000000 0.000238 -0.003297 -0.804494 0.001683 433.103546
[Rear_Toe3_02]
16 340.494141 -0.000358 -0.000477 -0.002600 -36.670113 -0.002600 340.494171
17 340.494141 -0.000358 -0.000477 -0.002600 -36.670113 -0.002600 340.494171
18 340.494141 -0.000358 -0.000477 -0.002600 -36.670113 -0.002600 340.494171
[Rear_Toe3_03]
16 433.103577 0.001431 -0.000238 0.006396 30.730234 -0.001649 433.103546
17 433.103577 0.001431 -0.000238 0.006396 30.730234 -0.001649 433.103546
18 433.103577 0.001431 -0.000238 0.006396 30.730234 -0.001649 433.103546
[Back_Bone]
16 1312.175781 -701.934692 0.000954 17.776768 -18.526501 -85.970055 1488.125488
17 1312.175781 -701.934692 0.000954 17.953346 -21.866549 -91.835335 1488.125488
18 1312.175781 -701.934692 0.000954 18.022240 -23.514437 -94.141258 1488.125488
[Head]
16 1406.159424 809.709290 0.001431 -0.905289 -1.303545 45.210648 1622.625488
17 1406.159424 809.709290 0.001431 -0.965316 -1.258734 47.675945 1622.625488
18 1406.159424 809.709290 0.001431 -0.945171 -1.275650 46.903778 1622.625488
[Motor_Bone]
16 1158.364380 -417.834747 0.000477 6.628101 -26.756845 -97.438004 1231.419434
17 1158.364380 -417.834747 0.000477 4.031370 -26.283785 -103.948257 1231.419434
18 1158.364380 -417.834747 0.000477 0.802283 -25.065844 -109.720772 1231.419434
[Ping_Mechanism]
16 1210.495728 -597.138367 23.274689 0.000103 -0.000053 82.120995 1349.968750
17 1208.134277 -587.552185 27.148590 0.000103 -0.000053 82.120995 1343.704956
18 1207.985596 -588.667725 25.460587 0.000103 -0.000053 82.120995 1344.026611
[BN_LookIK]
16 193.241119 1380.371704 -0.002861 0.000000 89.965736 -31.038179 1393.832153
17 193.241119 1380.371704 -0.002861 0.000000 89.965736 -31.038179 1393.832153
18 193.241119 1380.371704 -0.002861 0.000000 89.965736 -31.038179 1393.832153
[bottomMouth]
16 -435.092926 615.759399 -0.000954 -0.000022 0.000016 73.527184 753.966492
17 -435.092926 615.759399 -0.000954 -0.000022 0.000016 73.527184 753.966492
18 -435.092926 615.759399 -0.000954 -0.000022 0.000016 73.527184 753.966492
[L_Mouth01]
16 554.440979 7.658243 838.222046 150.204178 23.759130 109.605339 1005.027161
17 554.440979 7.658243 838.222046 150.204178 23.759130 109.605339 1005.027161
18 554.440979 7.658243 838.222046 150.204178 23.759130 109.605339 1005.027161
[L_mouthFront]
16 551.629089 934.514771 339.150421 0.000081 2.804060 79.119301 1136.941284
17 551.629089 934.514771 339.150421 0.000081 2.804060 79.119301 1136.941284
18 551.629089 934.514771 339.150421 0.000081 2.804060 79.119301 1136.941284
[mouthGun]
16 55.332661 1627.420898 0.000000 0.000023 0.000009 -11.038128 1628.361328
17 55.332661 1627.420898 0.000000 0.000023 0.000009 -11.038128 1628.361328
18 55.332661 1627.420898 0.000000 0.000023 0.000009 -11.038128 1628.361328
[R_Mouth01]
16 554.442383 7.659197 -838.223938 29.795891 -23.759109 109.605331 1005.029541
17 554.442383 7.659197 -838.223938 29.795891 -23.759109 109.605331 1005.029541
18 554.442383 7.659197 -838.223938 29.795891 -23.759109 109.605331 1005.029541
[R_mouthFront]
16 551.629089 934.514282 -339.151367 0.000029 -2.803930 79.119133 1136.941162
17 551.629089 934.514282 -339.151367 0.000029 -2.803930 79.119133 1136.941162
18 551.629089 934.514282 -339.151367 0.000029 -2.803930 79.119133 1136.941162
[TopMouth]
16 461.269867 -56.106091 -0.008583 -0.000059 -0.000268 92.025169 464.669525
17 461.269867 -56.106091 -0.008583 -0.000059 -0.000268 92.025169 464.669525
18 461.269867 -56.106091 -0.008583 -0.000059 -0.000268 92.025169 464.669525
[weapon_bone]
16 -987.239868 1448.372803 0.001431 0.000000 89.965736 -31.038221 1752.833740
17 -987.239868 1448.372803 0.001431 0.000000 89.965736 -31.038221 1752.833740
18 -987.239868 1448.372803 0.001431 0.000000 89.965736 -31.038221 1752.833740
